<svg width="1200" height="680" viewBox="0 0 1200 680" fill="none" xmlns="http://www.w3.org/2000/svg">
  <rect width="1200" height="680" rx="24" fill="#160B14"/>
  <text x="60" y="90" fill="#FFF1F2" font-size="42" font-family="Arial, PingFang SC, Microsoft YaHei, sans-serif" font-weight="700">Redis 常见用途</text>
  <text x="60" y="132" fill="#FDA4AF" font-size="24" font-family="Arial, PingFang SC, Microsoft YaHei, sans-serif">基于内存的 key-value 数据库</text>

  <ellipse cx="600" cy="360" rx="150" ry="88" fill="#DC2626"/>
  <text x="545" y="372" fill="#FEF2F2" font-size="38" font-family="Arial, PingFang SC, Microsoft YaHei, sans-serif" font-weight="700">Redis</text>

  <rect x="120" y="220" width="220" height="100" rx="20" fill="#1F2937" stroke="#FB7185"/>
  <text x="176" y="280" fill="#FFE4E6" font-size="30" font-family="Arial, PingFang SC, Microsoft YaHei, sans-serif">缓存</text>
  <path d="M340 270C400 270 430 300 460 330" stroke="#FB7185" stroke-width="6" stroke-linecap="round"/>

  <rect x="860" y="220" width="220" height="100" rx="20" fill="#1F2937" stroke="#FB7185"/>
  <text x="904" y="280" fill="#FFE4E6" font-size="30" font-family="Arial, PingFang SC, Microsoft YaHei, sans-serif">计数器</text>
  <path d="M860 270C800 270 770 300 740 330" stroke="#FB7185" stroke-width="6" stroke-linecap="round"/>

  <rect x="120" y="420" width="220" height="100" rx="20" fill="#1F2937" stroke="#FB7185"/>
  <text x="160" y="480" fill="#FFE4E6" font-size="30" font-family="Arial, PingFang SC, Microsoft YaHei, sans-serif">排行榜</text>
  <path d="M340 470C400 470 430 440 460 400" stroke="#FB7185" stroke-width="6" stroke-linecap="round"/>

  <rect x="860" y="420" width="220" height="100" rx="20" fill="#1F2937" stroke="#FB7185"/>
  <text x="892" y="480" fill="#FFE4E6" font-size="30" font-family="Arial, PingFang SC, Microsoft YaHei, sans-serif">消息队列</text>
  <path d="M860 470C800 470 770 440 740 400" stroke="#FB7185" stroke-width="6" stroke-linecap="round"/>

  <rect x="390" y="560" width="420" height="70" rx="18" fill="#3F0F1F" stroke="#9F1239"/>
  <text x="445" y="605" fill="#FFE4E6" font-size="24" font-family="Arial, PingFang SC, Microsoft YaHei, sans-serif">常见数据类型：String / Hash / List / Set / ZSet</text>
</svg>
